# xmcd
#
# Track frame offsets:
#	150
#	23443
#	47667
#	71430
#	93367
#	108934
#	127848
#	151562
#	169840
#	190809
#	207716
#	224863
#	240634
#	257154
#	279472
#	301748
#
# Disc length: 4329 seconds
#
# Revision: 1
# Processed by: cddbd v1.5.1PL2 Copyright (c) Steve Scherf et al.
# Submitted via: audiograbber 1.83.01
#
DISCID=d710e710
DTITLE=Various Artist - New Music Sampler 2006 from Nilaihah Records and A Dif
DTITLE=ferent Drum
DYEAR=2006
DGENRE=Synthpop
TTITLE0=Invisible Ballet - Escaping Light
TTITLE1=Wave in Head - Because of You 
TTITLE2=XP8 - Purity 
TTITLE3=Ultraviolet - Overcome 
TTITLE4=Conetik - Elektronova 
TTITLE5=The Dignity of Labour - Liquid 
TTITLE6=Null Device - Unknowingly (Iris mix) 
TTITLE7=A Blue Ocean Dream - People Unite 
TTITLE8=Liquid Divine - Lotus
TTITLE9=Silica Gel - Nada es Eterno
TTITLE10=Endanger - Give Me a Reason 
TTITLE11=Capsize - We are Wimps
TTITLE12=The Azoic - Going Under (Conetik mix) 
TTITLE13=Leiahdorus - Parallel Universe 
TTITLE14=GASR - Remember 
TTITLE15=Neuroactive - More Serotonin
EXTD=
EXTT0=
EXTT1=
EXTT2=
EXTT3=
EXTT4=
EXTT5=
EXTT6=
EXTT7=
EXTT8=
EXTT9=
EXTT10=
EXTT11=
EXTT12=
EXTT13=
EXTT14=
EXTT15=
PLAYORDER=
